HIERARCHY
ROOT hip
{
  OFFSET 0 90.174 2.4664
  CHANNELS 6 Xposition Yposition Zposition Zrotation Xrotation Yrotation
  JOINT abdomen
  {
    OFFSET 0 -1.186 -1.5018
    CHANNELS 6 Xposition Yposition Zposition Zrotation Xrotation Yrotation
    JOINT abdomen2
    {
      OFFSET 0 9.964 0.2134
      CHANNELS 6 Xposition Yposition Zposition Zrotation Xrotation Yrotation
      JOINT chest
      {
        OFFSET 0 13.134 -3.2573
        CHANNELS 6 Xposition Yposition Zposition Zrotation Xrotation Yrotation
        JOINT neck
        {
          OFFSET 0 20.686 -1.6905
          CHANNELS 6 Xposition Yposition Zposition Zrotation Xrotation Yrotation
          JOINT head
          {
            OFFSET 0 7.238 -0.1237
            CHANNELS 6 Xposition Yposition Zposition Zrotation Xrotation Yrotation
            End Site
            {
              OFFSET 0 0 0
            }
          }
        }
        JOINT lCollar
        {
          OFFSET 1.7069 20.075 5.0056
          CHANNELS 6 Xposition Yposition Zposition Zrotation Xrotation Yrotation
          JOINT lShldr
          {
            OFFSET 13.6458 -0.047 -4.849
            CHANNELS 6 Xposition Yposition Zposition Zrotation Xrotation Yrotation
            JOINT lForeArm
            {
              OFFSET 28.3255 -0.9759 2.2888
              CHANNELS 6 Xposition Yposition Zposition Zrotation Xrotation Yrotation
              JOINT lHand
              {
                OFFSET 22.1583 -0.53 10.8316
                CHANNELS 6 Xposition Yposition Zposition Zrotation Xrotation Yrotation
                JOINT lThumb1
                {
                  OFFSET 0.786 0.112 2.5817
                  CHANNELS 6 Xposition Yposition Zposition Zrotation Xrotation Yrotation
                  JOINT lThumb2
                  {
                    OFFSET 0.3601 -0.878 4.2331
                    CHANNELS 6 Xposition Yposition Zposition Zrotation Xrotation Yrotation
                    JOINT lThumb2_End
                    {
                      OFFSET 1.8127 -1.216 2.2227
                      CHANNELS 6 Xposition Yposition Zposition Zrotation Xrotation Yrotation
                      End Site
                      {
                        OFFSET 0.0181 -0.0122 0.0222
                      }
                    }
                  }
                }
                JOINT lCarpal1
                {
                  OFFSET 0.9571 1.114 1.7695
                  CHANNELS 6 Xposition Yposition Zposition Zrotation Xrotation Yrotation
                  JOINT lIndex1
                  {
                    OFFSET 4.1246 0.487 4.1451
                    CHANNELS 6 Xposition Yposition Zposition Zrotation Xrotation Yrotation
                    JOINT lIndex2
                    {
                      OFFSET 3.4052 -1.454 2.7682
                      CHANNELS 6 Xposition Yposition Zposition Zrotation Xrotation Yrotation
                      JOINT lIndex2_End
                      {
                        OFFSET 1.4531 -1.795 1.2713
                        CHANNELS 6 Xposition Yposition Zposition Zrotation Xrotation Yrotation
                        End Site
                        {
                          OFFSET 0.0145 -0.0179 0.0127
                        }
                      }
                    }
                  }
                  JOINT lMid1
                  {
                    OFFSET 5.6954 0.21 2.1184
                    CHANNELS 6 Xposition Yposition Zposition Zrotation Xrotation Yrotation
                    JOINT lMid2
                    {
                      OFFSET 3.9766 -1.54 2.3863
                      CHANNELS 6 Xposition Yposition Zposition Zrotation Xrotation Yrotation
                      JOINT lMid2_End
                      {
                        OFFSET 1.4042 -1.926 1.125
                        CHANNELS 6 Xposition Yposition Zposition Zrotation Xrotation Yrotation
                        End Site
                        {
                          OFFSET 0.014 -0.0193 0.0113
                        }
                      }
                    }
                  }
                }
                JOINT lCarpal2
                {
                  OFFSET 2.0956 0.66 -0.3894
                  CHANNELS 6 Xposition Yposition Zposition Zrotation Xrotation Yrotation
                  JOINT lRing1
                  {
                    OFFSET 5.0395 -0.09 2.4971
                    CHANNELS 6 Xposition Yposition Zposition Zrotation Xrotation Yrotation
                    JOINT lRing2
                    {
                      OFFSET 3.7921 -1.552 1.4806
                      CHANNELS 6 Xposition Yposition Zposition Zrotation Xrotation Yrotation
                      JOINT lRing2_End
                      {
                        OFFSET 1.4655 -1.808 0.9609
                        CHANNELS 6 Xposition Yposition Zposition Zrotation Xrotation Yrotation
                        End Site
                        {
                          OFFSET 0.0147 -0.0181 0.0096
                        }
                      }
                    }
                  }
                  JOINT lPinky1
                  {
                    OFFSET 4.9141 -1.269 0.3591
                    CHANNELS 6 Xposition Yposition Zposition Zrotation Xrotation Yrotation
                    JOINT lPinky2
                    {
                      OFFSET 3.1477 -1.685 0.8462
                      CHANNELS 6 Xposition Yposition Zposition Zrotation Xrotation Yrotation
                      JOINT lPinky2_End
                      {
                        OFFSET 0.8055 -1.585 0.7955
                        CHANNELS 6 Xposition Yposition Zposition Zrotation Xrotation Yrotation
                        End Site
                        {
                          OFFSET 0.0081 -0.0158 0.008
                        }
                      }
                    }
                  }
                }
              }
            }
          }
        }
        JOINT rCollar
        {
          OFFSET -1.7069 20.075 5.0056
          CHANNELS 6 Xposition Yposition Zposition Zrotation Xrotation Yrotation
          JOINT rShldr
          {
            OFFSET -13.6458 -0.047 -4.849
            CHANNELS 6 Xposition Yposition Zposition Zrotation Xrotation Yrotation
            JOINT rForeArm
            {
              OFFSET -28.3255 -0.9759 2.2888
              CHANNELS 6 Xposition Yposition Zposition Zrotation Xrotation Yrotation
              JOINT rHand
              {
                OFFSET -22.1583 -0.53 10.8316
                CHANNELS 6 Xposition Yposition Zposition Zrotation Xrotation Yrotation
                JOINT rThumb1
                {
                  OFFSET -0.786 0.112 2.5817
                  CHANNELS 6 Xposition Yposition Zposition Zrotation Xrotation Yrotation
                  JOINT rThumb2
                  {
                    OFFSET -0.3601 -0.878 4.2331
                    CHANNELS 6 Xposition Yposition Zposition Zrotation Xrotation Yrotation
                    JOINT rThumb2_End
                    {
                      OFFSET -1.8127 -1.216 2.2227
                      CHANNELS 6 Xposition Yposition Zposition Zrotation Xrotation Yrotation
                      End Site
                      {
                        OFFSET -0.0181 -0.0122 0.0222
                      }
                    }
                  }
                }
                JOINT rCarpal1
                {
                  OFFSET -0.9571 1.114 1.7695
                  CHANNELS 6 Xposition Yposition Zposition Zrotation Xrotation Yrotation
                  JOINT rIndex1
                  {
                    OFFSET -4.1246 0.487 4.1451
                    CHANNELS 6 Xposition Yposition Zposition Zrotation Xrotation Yrotation
                    JOINT rIndex2
                    {
                      OFFSET -3.4052 -1.454 2.7682
                      CHANNELS 6 Xposition Yposition Zposition Zrotation Xrotation Yrotation
                      JOINT rIndex2_End
                      {
                        OFFSET -1.4531 -1.795 1.2713
                        CHANNELS 6 Xposition Yposition Zposition Zrotation Xrotation Yrotation
                        End Site
                        {
                          OFFSET -0.0145 -0.018 0.0127
                        }
                      }
                    }
                  }
                  JOINT rMid1
                  {
                    OFFSET -5.6954 0.21 2.1184
                    CHANNELS 6 Xposition Yposition Zposition Zrotation Xrotation Yrotation
                    JOINT rMid2
                    {
                      OFFSET -3.9766 -1.54 2.3863
                      CHANNELS 6 Xposition Yposition Zposition Zrotation Xrotation Yrotation
                      JOINT rMid2_End
                      {
                        OFFSET -1.4042 -1.926 1.125
                        CHANNELS 6 Xposition Yposition Zposition Zrotation Xrotation Yrotation
                        End Site
                        {
                          OFFSET -0.014 -0.0193 0.0113
                        }
                      }
                    }
                  }
                }
                JOINT rCarpal2
                {
                  OFFSET -2.0956 0.66 -0.3894
                  CHANNELS 6 Xposition Yposition Zposition Zrotation Xrotation Yrotation
                  JOINT rRing1
                  {
                    OFFSET -5.0395 -0.09 2.4971
                    CHANNELS 6 Xposition Yposition Zposition Zrotation Xrotation Yrotation
                    JOINT rRing2
                    {
                      OFFSET -3.7921 -1.552 1.4806
                      CHANNELS 6 Xposition Yposition Zposition Zrotation Xrotation Yrotation
                      JOINT rRing2_End
                      {
                        OFFSET -1.4655 -1.808 0.9609
                        CHANNELS 6 Xposition Yposition Zposition Zrotation Xrotation Yrotation
                        End Site
                        {
                          OFFSET -0.0147 -0.0181 0.0096
                        }
                      }
                    }
                  }
                  JOINT rPinky1
                  {
                    OFFSET -4.9141 -1.269 0.3592
                    CHANNELS 6 Xposition Yposition Zposition Zrotation Xrotation Yrotation
                    JOINT rPinky2
                    {
                      OFFSET -3.1477 -1.685 0.8462
                      CHANNELS 6 Xposition Yposition Zposition Zrotation Xrotation Yrotation
                      JOINT rPinky2_End
                      {
                        OFFSET -0.8055 -1.585 0.7955
                        CHANNELS 6 Xposition Yposition Zposition Zrotation Xrotation Yrotation
                        End Site
                        {
                          OFFSET -0.0081 -0.0158 0.008
                        }
                      }
                    }
                  }
                }
              }
            }
          }
        }
      }
    }
  }
  JOINT lThigh
  {
    OFFSET 8.367 -8.2066 0.5982
    CHANNELS 6 Xposition Yposition Zposition Zrotation Xrotation Yrotation
    JOINT lShin
    {
      OFFSET 2.1923 -43.463 -0.4932
      CHANNELS 6 Xposition Yposition Zposition Zrotation Xrotation Yrotation
      JOINT lFoot
      {
        OFFSET 0.7333 -45.8593 -2.6451
        CHANNELS 6 Xposition Yposition Zposition Zrotation Xrotation Yrotation
        End Site
        {
          OFFSET 2.6618 -4.2699 12.3931
        }
      }
    }
  }
  JOINT rThigh
  {
    OFFSET -8.367 -8.2066 0.5982
    CHANNELS 6 Xposition Yposition Zposition Zrotation Xrotation Yrotation
    JOINT rShin
    {
      OFFSET -2.1923 -43.463 -0.4931
      CHANNELS 6 Xposition Yposition Zposition Zrotation Xrotation Yrotation
      JOINT rFoot
      {
        OFFSET -0.7333 -45.8593 -2.6451
        CHANNELS 6 Xposition Yposition Zposition Zrotation Xrotation Yrotation
        End Site
        {
          OFFSET -2.6618 -4.2699 12.3931
        }
      }
    }
  }
}
MOTION
Frames:	4
Frame Time:	0.0333333
0 90.174 2.4664 0 0 -0 0 -1.186 -1.5018 0 0 -0 0 9.964 0.2134 0 0 -0 0 13.134 -3.2573 0 0 -0 0 20.686 -1.6905 0 0 -0 0 7.238 -0.1237 0 0 -0 1.7069 20.075 5.0056 0 0 -0 13.6458 -0.047 -4.849 1.66051 0.0835086 5.75766 28.3255 -0.9759 2.2888 -0.0175111 0.895433 15.7816 22.1583 -0.53 10.8316 7.95139e-016 -1.98785e-016 -0 0.786 0.112 2.5817 5.46658e-016 -3.97569e-016 -0 0.3601 -0.878 4.2331 5.96354e-016 0 -0 1.8127 -1.216 2.2227 3.97569e-016 1.98785e-016 9.54166e-015 0.9571 1.114 1.7695 1.49089e-016 -3.97569e-016 -0 4.1246 0.487 4.1451 6.4605e-016 0 3.18055e-015 3.4052 -1.454 2.7682 5.96354e-016 0 3.18055e-015 1.4531 -1.795 1.2713 8.94531e-016 -1.98785e-016 6.36111e-015 5.6954 0.21 2.1184 6.4605e-016 0 3.18055e-015 3.9766 -1.54 2.3863 5.96354e-016 0 3.18055e-015 1.4042 -1.926 1.125 8.94531e-016 -1.98785e-016 6.36111e-015 2.0956 0.66 -0.3894 1.49089e-016 -3.97569e-016 -0 5.0395 -0.09 2.4971 6.4605e-016 0 3.18055e-015 3.7921 -1.552 1.4806 5.96354e-016 0 3.18055e-015 1.4655 -1.808 0.9609 8.94531e-016 -1.98785e-016 6.36111e-015 4.9141 -1.269 0.3591 6.4605e-016 0 3.18055e-015 3.1477 -1.685 0.8462 5.96354e-016 0 3.18055e-015 0.8055 -1.585 0.7955 8.94531e-016 -1.98785e-016 6.36111e-015 -1.7069 20.075 5.0056 0 0 -0 -13.6458 -0.047 -4.849 -1.4496 0.0636048 -5.0245 -28.3255 -0.9759 2.2888 -1.74811 1.20616 -16.8394 -22.1583 -0.53 10.8316 -1.19271e-015 1.98785e-016 -3.18055e-015 -0.786 0.112 2.5817 -3.97569e-016 1.98785e-016 -3.18055e-015 -0.3601 -0.878 4.2331 -2.98177e-016 1.98785e-016 -3.18055e-015 -1.8127 -1.216 2.2227 -2.98177e-016 3.97569e-016 -0 -0.9571 1.114 1.7695 4.96962e-016 0 -6.36111e-015 -4.1246 0.487 4.1451 -9.93923e-017 3.97569e-016 -0 -3.4052 -1.454 2.7682 -8.94531e-016 5.96354e-016 -0 -1.4531 -1.795 1.2713 -3.97569e-016 3.97569e-016 -0 -5.6954 0.21 2.1184 -9.93923e-017 3.97569e-016 -0 -3.9766 -1.54 2.3863 -8.94531e-016 5.96354e-016 -0 -1.4042 -1.926 1.125 -3.97569e-016 3.97569e-016 -0 -2.0956 0.66 -0.3894 4.96962e-016 0 -6.36111e-015 -5.0395 -0.09 2.4971 -9.93923e-017 3.97569e-016 -0 -3.7921 -1.552 1.4806 -8.94531e-016 5.96354e-016 -0 -1.4655 -1.808 0.9609 -3.97569e-016 3.97569e-016 -0 -4.9141 -1.269 0.3592 -9.93923e-017 3.97569e-016 -0 -3.1477 -1.685 0.8462 -8.94531e-016 5.96354e-016 -0 -0.8055 -1.585 0.7955 -3.97569e-016 3.97569e-016 -0 8.367 -8.2066 0.5982 -4.66115 -1.03232 0.120763 2.1923 -43.463 -0.4932 0.00990601 1.55097 0.177175 0.7333 -45.8593 -2.6451 4.65196 -0.54114 -0.255042 -8.367 -8.2066 0.5982 4.66115 -1.03222 -0.120763 -2.1923 -43.463 -0.4931 -0.00990459 1.5509 -0.177176 -0.7333 -45.8593 -2.6451 -4.65196 -0.541171 0.255041 
-0.0176558 46.4651 3.52975 0 0 -0 0 -1.186 -1.5018 0.122325 0.00428252 -0.751841 -1.38778e-017 9.964 0.2134 0.244695 0.00695956 -1.50369 0 13.134 -3.2573 0.244695 0.00695957 -1.50369 0 20.686 -1.6905 0.0246215 -0.00637638 -4.6225e-005 0 7.238 -0.1237 0.0915768 -0.0313638 -0.22088 1.7069 20.075 5.0056 -12.1839 1.64912 -32.8935 13.6458 -0.047 -4.849 -3.32865 0.423978 -13.4439 28.3255 -0.9759 2.2888 -22.9443 -4.18307 4.45736 22.1583 -0.53 10.8316 15.0842 -17.1418 -13.2847 0.786 0.112 2.5817 -3.57812e-015 1.19271e-015 -0 0.3601 -0.878 4.2331 3.97569e-015 9.14409e-015 -6.36111e-015 1.8127 -1.216 2.2227 1.98785e-015 -6.75868e-015 -3.18055e-015 0.9571 1.114 1.7695 -3.57812e-015 1.19271e-015 -0 4.1246 0.487 4.1451 6.36111e-015 9.54166e-015 6.36111e-015 3.4052 -1.454 2.7682 3.57812e-015 -3.18055e-015 3.18055e-015 1.4531 -1.795 1.2713 -4.77083e-015 -3.18055e-015 6.36111e-015 5.6954 0.21 2.1184 6.36111e-015 9.54166e-015 6.36111e-015 3.9766 -1.54 2.3863 3.57812e-015 -3.18055e-015 3.18055e-015 1.4042 -1.926 1.125 -4.77083e-015 -3.18055e-015 6.36111e-015 2.0956 0.66 -0.3894 -3.57812e-015 1.19271e-015 -0 5.0395 -0.09 2.4971 6.36111e-015 9.54166e-015 6.36111e-015 3.7921 -1.552 1.4806 3.57812e-015 -3.18055e-015 3.18055e-015 1.4655 -1.808 0.9609 -4.77083e-015 -3.18055e-015 6.36111e-015 4.9141 -1.269 0.3591 6.36111e-015 9.54166e-015 6.36111e-015 3.1477 -1.685 0.8462 3.57812e-015 -3.18055e-015 3.18055e-015 0.8055 -1.585 0.7955 -4.77083e-015 -3.18055e-015 6.36111e-015 -1.7069 20.075 5.0056 -3.8009 -1.14809 -0.449526 -13.6458 -0.047 -4.849 -10.6698 -3.52432 5.6757 -28.3255 -0.9759 2.2888 38.8606 -9.25966 107.922 -22.1583 -0.53 10.8316 4.81788 1.94108 0.0238723 -0.786 0.112 2.5817 9.66821e-007 -1.36626e-006 -3.25148e-007 -0.3601 -0.878 4.2331 -3.18055e-015 7.95139e-016 3.18055e-015 -1.8127 -1.216 2.2227 9.66821e-007 -1.36626e-006 -3.25148e-007 -0.9571 1.114 1.7695 -7.95139e-016 -3.97569e-015 6.36111e-015 -4.1246 0.487 4.1451 9.66821e-007 -1.36626e-006 -3.25148e-007 -3.4052 -1.454 2.7682 -1.59028e-015 0 -0 -1.4531 -1.795 1.2713 9.66821e-007 -1.36626e-006 -3.25148e-007 -5.6954 0.21 2.1184 9.66821e-007 -1.36626e-006 -3.25148e-007 -3.9766 -1.54 2.3863 -1.59028e-015 0 -0 -1.4042 -1.926 1.125 9.66821e-007 -1.36626e-006 -3.25148e-007 -2.0956 0.66 -0.3894 -7.95139e-016 -3.97569e-015 6.36111e-015 -5.0395 -0.09 2.4971 9.66821e-007 -1.36626e-006 -3.25148e-007 -3.7921 -1.552 1.4806 -1.59028e-015 0 -0 -1.4655 -1.808 0.9609 9.66821e-007 -1.36626e-006 -3.25148e-007 -4.9141 -1.269 0.3592 9.66821e-007 -1.36626e-006 -3.25148e-007 -3.1477 -1.685 0.8462 -1.59028e-015 0 -0 -0.8055 -1.585 0.7955 9.66821e-007 -1.36626e-006 -3.25148e-007 8.367 -8.2066 0.5982 0.189411 -41.5594 8.10245 2.1923 -43.463 -0.4932 168.444 71.9598 -167.183 0.7333 -45.8593 -2.6451 -0.254727 33.4827 21.681 -8.367 -8.2066 0.5982 -0.125973 -41.5619 -8.12624 -2.1923 -43.463 -0.4931 -168.443 71.9586 167.178 -0.7333 -45.8593 -2.6451 0.288782 33.4799 -21.7785 
0.0602573 26.8201 3.44093 0 0 -0 0 -1.186 -1.5018 0.181198 -0.00370451 -1.0828 2.77556e-017 9.964 0.2134 0.362295 -0.0108325 -2.16558 1.11022e-016 13.134 -3.2573 0.362295 -0.0108325 -2.16558 -3.33067e-016 20.686 -1.6905 0.0356986 -0.0093433 -4.52823e-006 -1.11022e-016 7.238 -0.1237 0.185601 -0.051951 -0.438464 1.7069 20.075 5.0056 -17.0042 1.82999 -47.6757 13.6458 -0.047 -4.849 -5.33356 0.477778 -22.0322 28.3255 -0.9759 2.2888 -34.1263 -6.55578 -1.1151 22.1583 -0.53 10.8316 20.6153 -23.4036 -19.5854 0.786 0.112 2.5817 -1.59028e-015 1.39149e-014 3.18055e-015 0.3601 -0.878 4.2331 -1.59028e-015 1.05356e-014 2.38542e-015 1.8127 -1.216 2.2227 -2.86904e-031 2.06736e-014 7.95139e-016 0.9571 1.114 1.7695 -1.59028e-015 -5.36719e-015 -0 4.1246 0.487 4.1451 6.36111e-015 1.35174e-014 4.77083e-015 3.4052 -1.454 2.7682 1.59028e-015 4.57205e-015 3.18055e-015 1.4531 -1.795 1.2713 1.59028e-015 1.19271e-014 2.38542e-015 5.6954 0.21 2.1184 6.36111e-015 1.35174e-014 4.77083e-015 3.9766 -1.54 2.3863 1.59028e-015 4.57205e-015 3.18055e-015 1.4042 -1.926 1.125 1.59028e-015 1.19271e-014 2.38542e-015 2.0956 0.66 -0.3894 -1.59028e-015 -5.36719e-015 -0 5.0395 -0.09 2.4971 6.36111e-015 1.35174e-014 4.77083e-015 3.7921 -1.552 1.4806 1.59028e-015 4.57205e-015 3.18055e-015 1.4655 -1.808 0.9609 1.59028e-015 1.19271e-014 2.38542e-015 4.9141 -1.269 0.3591 6.36111e-015 1.35174e-014 4.77083e-015 3.1477 -1.685 0.8462 1.59028e-015 4.57205e-015 3.18055e-015 0.8055 -1.585 0.7955 1.59028e-015 1.19271e-014 2.38542e-015 -1.7069 20.075 5.0056 -5.51718 -1.66468 -0.651909 -13.6458 -0.047 -4.849 -14.3986 -5.04303 10.5228 -28.3255 -0.9759 2.2888 -73.4223 42.0824 -23.1072 -22.1583 -0.53 10.8316 6.9401 2.77149 0.0977545 -0.786 0.112 2.5817 -6.36111e-015 -6.36111e-015 -0 -0.3601 -0.878 4.2331 -6.36111e-015 -6.36111e-015 -0 -1.8127 -1.216 2.2227 5.29669e-031 3.18055e-015 -9.54166e-015 -0.9571 1.114 1.7695 3.53113e-031 -6.36111e-015 3.18055e-015 -4.1246 0.487 4.1451 -3.18055e-015 -3.18055e-015 3.18055e-015 -3.4052 -1.454 2.7682 -9.54166e-015 3.18055e-015 -0 -1.4531 -1.795 1.2713 -6.36111e-015 0 -3.18055e-015 -5.6954 0.21 2.1184 -3.18055e-015 -3.18055e-015 3.18055e-015 -3.9766 -1.54 2.3863 -9.54166e-015 3.18055e-015 -0 -1.4042 -1.926 1.125 -6.36111e-015 0 -3.18055e-015 -2.0956 0.66 -0.3894 3.53113e-031 -6.36111e-015 3.18055e-015 -5.0395 -0.09 2.4971 -3.18055e-015 -3.18055e-015 3.18055e-015 -3.7921 -1.552 1.4806 -9.54166e-015 3.18055e-015 -0 -1.4655 -1.808 0.9609 -6.36111e-015 0 -3.18055e-015 -4.9141 -1.269 0.3592 -3.18055e-015 -3.18055e-015 3.18055e-015 -3.1477 -1.685 0.8462 -9.54166e-015 3.18055e-015 -0 -0.8055 -1.585 0.7955 -6.36111e-015 0 -3.18055e-015 8.367 -8.2066 0.5982 6.67313 -66.8994 29.6878 2.1923 -43.463 -0.4932 171.712 23.5033 -159.572 0.7333 -45.8593 -2.6451 -20.3733 50.9061 48.7657 -8.367 -8.2066 0.5982 -6.86836 -66.9138 -29.5924 -2.1923 -43.463 -0.4931 -171.713 23.4991 159.579 -0.7333 -45.8593 -2.6451 20.1839 51.0211 -48.4033 
0.232574 30.8725 3.46507 0 0 -0 0 -1.186 -1.5018 0.167897 -0.00141955 -1.00968 0 9.964 0.2134 0.335743 -0.00579744 -2.01936 0 13.134 -3.2573 0.335744 -0.00579745 -2.01936 1.11022e-016 20.686 -1.6905 0.0332364 -0.00874473 -5.36453e-005 -2.22045e-016 7.238 -0.1237 0.28222 -0.0618533 -0.652769 1.7069 20.075 5.0056 -15.7087 1.6167 -44.3184 13.6458 -0.047 -4.849 -4.64532 0.401318 -20.0077 28.3255 -0.9759 2.2888 -31.5644 -6.73868 -1.34367 22.1583 -0.53 10.8316 19.2779 -21.4761 -18.3922 0.786 0.112 2.5817 -7.15625e-015 -1.13307e-014 7.95139e-015 0.3601 -0.878 4.2331 -7.15625e-015 -9.54166e-015 1.11319e-014 1.8127 -1.216 2.2227 -7.15625e-015 -1.37161e-014 9.54166e-015 0.9571 1.114 1.7695 7.95139e-016 3.97569e-016 -3.18055e-015 4.1246 0.487 4.1451 -3.18055e-015 3.97569e-015 1.27222e-014 3.4052 -1.454 2.7682 -7.95139e-015 -1.27222e-014 9.54166e-015 1.4531 -1.795 1.2713 -7.95139e-015 -7.15625e-015 1.11319e-014 5.6954 0.21 2.1184 -3.18055e-015 3.97569e-015 1.27222e-014 3.9766 -1.54 2.3863 -7.95139e-015 -1.27222e-014 9.54166e-015 1.4042 -1.926 1.125 -7.95139e-015 -7.15625e-015 1.11319e-014 2.0956 0.66 -0.3894 7.95139e-016 3.97569e-016 -3.18055e-015 5.0395 -0.09 2.4971 -3.18055e-015 3.97569e-015 1.27222e-014 3.7921 -1.552 1.4806 -7.95139e-015 -1.27222e-014 9.54166e-015 1.4655 -1.808 0.9609 -7.95139e-015 -7.15625e-015 1.11319e-014 4.9141 -1.269 0.3591 -3.18055e-015 3.97569e-015 1.27222e-014 3.1477 -1.685 0.8462 -7.95139e-015 -1.27222e-014 9.54166e-015 0.8055 -1.585 0.7955 -7.95139e-015 -7.15625e-015 1.11319e-014 -1.7069 20.075 5.0056 -5.13547 -1.54988 -0.606961 -13.6458 -0.047 -4.849 -13.592 -4.7135 9.44315 -28.3255 -0.9759 2.2888 67.048 -17.5652 151.718 -22.1583 -0.53 10.8316 6.36342 2.49156 0.342145 -0.786 0.112 2.5817 2.38542e-015 -1.59028e-015 3.18055e-015 -0.3601 -0.878 4.2331 4.77083e-015 3.18055e-015 -3.18055e-015 -1.8127 -1.216 2.2227 3.97569e-015 -1.11319e-014 3.18055e-015 -0.9571 1.114 1.7695 2.38542e-015 -1.59028e-015 3.18055e-015 -4.1246 0.487 4.1451 3.97569e-015 3.18055e-015 -0 -3.4052 -1.454 2.7682 2.38542e-015 -1.59028e-015 6.36111e-015 -1.4531 -1.795 1.2713 -3.97569e-015 3.18055e-015 -6.36111e-015 -5.6954 0.21 2.1184 3.97569e-015 3.18055e-015 -0 -3.9766 -1.54 2.3863 2.38542e-015 -1.59028e-015 6.36111e-015 -1.4042 -1.926 1.125 -3.97569e-015 3.18055e-015 -6.36111e-015 -2.0956 0.66 -0.3894 2.38542e-015 -1.59028e-015 3.18055e-015 -5.0395 -0.09 2.4971 3.97569e-015 3.18055e-015 -0 -3.7921 -1.552 1.4806 2.38542e-015 -1.59028e-015 6.36111e-015 -1.4655 -1.808 0.9609 -3.97569e-015 3.18055e-015 -6.36111e-015 -4.9141 -1.269 0.3592 3.97569e-015 3.18055e-015 -0 -3.1477 -1.685 0.8462 2.38542e-015 -1.59028e-015 6.36111e-015 -0.8055 -1.585 0.7955 -3.97569e-015 3.18055e-015 -6.36111e-015 8.367 -8.2066 0.5982 3.68944 -59.2291 19.8479 2.1923 -43.463 -0.4932 171.774 34.3953 -164.691 0.7333 -45.8593 -2.6451 -12.3679 45.8729 38.9591 -8.367 -8.2066 0.5982 -4.45559 -59.2411 -19.4763 -2.1923 -43.463 -0.4931 -171.776 34.4025 164.714 -0.7333 -45.8593 -2.6451 11.6425 46.1813 -37.5363 
